<?xml version="1.0" encoding="iso-8859-1"?>
<!-- Generator: Adobe Illustrator 23.0.3, SVG Export Plug-In . SVG Version: 6.00 Build 0)  -->
<svg version="1.1" id="Layer_1" xmlns="http://www.w3.org/2000/svg" xmlns:xlink="http://www.w3.org/1999/xlink" x="0px" y="0px"
	 viewBox="0 0 48 48" style="enable-background:new 0 0 48 48;" xml:space="preserve">
<g>
	
		<linearGradient id="SVGID_1_" gradientUnits="userSpaceOnUse" x1="-1254.3973" y1="877.2676" x2="-1261.9115" y2="899.4664" gradientTransform="matrix(1.5625 0 0 1.5625 1981.75 -1362.0625)">
		<stop  offset="0" style="stop-color:#114A8B"/>
		<stop  offset="1" style="stop-color:#0669BC"/>
	</linearGradient>
	<path style="fill:url(#SVGID_1_);" d="M17.634,6h11.305L17.203,40.773c-0.247,0.733-0.934,1.226-1.708,1.226H6.697
		c-0.994,0-1.8-0.806-1.8-1.8c0-0.196,0.032-0.39,0.094-0.576L15.926,7.227C16.173,6.494,16.86,6,17.634,6L17.634,6z"/>
	<path style="fill:#0078D4;" d="M34.062,29.324H16.135c-0.458-0.001-0.83,0.371-0.831,0.829c0,0.231,0.095,0.451,0.264,0.608
		l11.52,10.752C27.423,41.826,27.865,42,28.324,42h10.151L34.062,29.324z"/>
	
		<linearGradient id="SVGID_2_" gradientUnits="userSpaceOnUse" x1="-1252.05" y1="887.6125" x2="-1253.7882" y2="888.2002" gradientTransform="matrix(1.5625 0 0 1.5625 1981.75 -1362.0625)">
		<stop  offset="0" style="stop-color:#000000;stop-opacity:0.3"/>
		<stop  offset="0.071" style="stop-color:#000000;stop-opacity:0.2"/>
		<stop  offset="0.321" style="stop-color:#000000;stop-opacity:0.1"/>
		<stop  offset="0.623" style="stop-color:#000000;stop-opacity:0.05"/>
		<stop  offset="1" style="stop-color:#000000;stop-opacity:0"/>
	</linearGradient>
	<path style="fill:url(#SVGID_2_);" d="M17.634,6c-0.783-0.003-1.476,0.504-1.712,1.25L5.005,39.595
		c-0.335,0.934,0.151,1.964,1.085,2.299C6.286,41.964,6.493,42,6.702,42h9.026c0.684-0.122,1.25-0.603,1.481-1.259l2.177-6.416
		l7.776,7.253c0.326,0.27,0.735,0.419,1.158,0.422h10.114l-4.436-12.676l-12.931,0.003L28.98,6H17.634z"/>
	
		<linearGradient id="SVGID_3_" gradientUnits="userSpaceOnUse" x1="-1252.9519" y1="876.5999" x2="-1244.7035" y2="898.575" gradientTransform="matrix(1.5625 0 0 1.5625 1981.75 -1362.0625)">
		<stop  offset="0" style="stop-color:#3CCBF4"/>
		<stop  offset="1" style="stop-color:#2892DF"/>
	</linearGradient>
	<path style="fill:url(#SVGID_3_);" d="M32.074,7.225C31.827,6.493,31.141,6,30.368,6h-12.6c0.772,0,1.459,0.493,1.705,1.224
		l10.935,32.399c0.318,0.942-0.188,1.963-1.13,2.281C29.093,41.968,28.899,42,28.703,42h12.6c0.994,0,1.8-0.806,1.8-1.801
		c0-0.196-0.032-0.39-0.095-0.575L32.074,7.225z"/>
</g>
</svg>